<?xml version="1.0" encoding="UTF-8" standalone="no"?>
<!-- Created with Inkscape (http://www.inkscape.org/) -->

<svg
   width="210mm"
   height="297mm"
   viewBox="0 0 210 297"
   version="1.1"
   id="svg5"
   inkscape:version="1.1.2 (b8e25be833, 2022-02-05)"
   sodipodi:docname="quarto_images.svg"
   xmlns:inkscape="http://www.inkscape.org/namespaces/inkscape"
   xmlns:sodipodi="http://sodipodi.sourceforge.net/DTD/sodipodi-0.dtd"
   xmlns="http://www.w3.org/2000/svg"
   xmlns:svg="http://www.w3.org/2000/svg">
  <sodipodi:namedview
     id="namedview7"
     pagecolor="#ffffff"
     bordercolor="#eeeeee"
     borderopacity="1"
     inkscape:pageshadow="0"
     inkscape:pageopacity="0"
     inkscape:pagecheckerboard="0"
     inkscape:document-units="mm"
     showgrid="false"
     inkscape:zoom="0.74029882"
     inkscape:cx="610.56426"
     inkscape:cy="636.22957"
     inkscape:window-width="1920"
     inkscape:window-height="1017"
     inkscape:window-x="-8"
     inkscape:window-y="-8"
     inkscape:window-maximized="1"
     inkscape:current-layer="layer1" />
  <defs
     id="defs2" />
  <g
     inkscape:label="Layer 1"
     inkscape:groupmode="layer"
     id="layer1">
    <rect
       style="fill:#000000;stroke:#000000;stroke-width:5;fill-opacity:1;stroke-miterlimit:4;stroke-dasharray:none;stroke-linejoin:round"
       id="rect892"
       width="115.08303"
       height="115.08303"
       x="39.671478"
       y="61.472923"
       inkscape:export-filename="C:\quartoGUI\board.png"
       inkscape:export-xdpi="105.76015"
       inkscape:export-ydpi="105.76015" />
    <ellipse
       style="fill:none;fill-opacity:1;stroke:#b86b00;stroke-width:1.8;stroke-opacity:1;stroke-miterlimit:4;stroke-dasharray:none"
       id="path938"
       cx="97.21299"
       cy="119.01444"
       rx="57.541515"
       ry="57.541512"
       inkscape:export-filename="C:\quartoGUI\board.png"
       inkscape:export-xdpi="105.76015"
       inkscape:export-ydpi="105.76015" />
    <path
       id="path3456"
       style="fill:#b86b00;fill-opacity:1;stroke:#b86b00;stroke-width:2;stroke-linejoin:round;stroke-miterlimit:4;stroke-dasharray:none;stroke-opacity:1"
       d="m 46.16589,113.20719 a 8.0415161,8.0415161 0 0 0 -3.67e-4,11.37258 8.0415161,8.0415161 0 0 0 11.372582,-3.6e-4 8.0415161,8.0415161 0 0 0 -3e-6,-11.37221 8.0415161,8.0415161 0 0 0 -11.372212,-1e-5 z M 61.623724,97.749359 a 8.0415161,8.0415161 0 0 0 0,11.372211 8.0415161,8.0415161 0 0 0 11.372215,0 8.0415161,8.0415161 0 0 0 3.65e-4,-11.372576 8.0415161,8.0415161 0 0 0 -11.37258,3.65e-4 z M 77.081929,82.291155 a 8.0415161,8.0415161 0 0 0 0,11.372214 8.0415161,8.0415161 0 0 0 11.372214,0 8.0415161,8.0415161 0 0 0 0,-11.372214 8.0415161,8.0415161 0 0 0 -11.372214,0 z M 92.540124,66.832959 a 8.0415161,8.0415161 0 0 0 -3.6e-4,11.372575 8.0415161,8.0415161 0 0 0 11.372576,-3.6e-4 8.0415161,8.0415161 0 0 0 0,-11.372215 8.0415161,8.0415161 0 0 0 -11.372216,0 z M 61.308015,128.47575 a 8.0415161,8.0415161 0 0 0 -3.64e-4,11.37258 8.0415161,8.0415161 0 0 0 11.372579,-3.6e-4 8.0415161,8.0415161 0 0 0 0,-11.37222 8.0415161,8.0415161 0 0 0 -11.372215,0 z m 15.457837,-15.45783 a 8.0415161,8.0415161 0 0 0 0,11.37221 8.0415161,8.0415161 0 0 0 11.372214,0 8.0415161,8.0415161 0 0 0 3.65e-4,-11.37258 8.0415161,8.0415161 0 0 0 -11.372579,3.7e-4 z M 92.224056,97.559713 a 8.0415161,8.0415161 0 0 0 0,11.372217 8.0415161,8.0415161 0 0 0 11.372214,0 8.0415161,8.0415161 0 0 0 0,-11.372217 8.0415161,8.0415161 0 0 0 -11.372214,0 z M 107.68225,82.101517 a 8.0415161,8.0415161 0 0 0 -3.6e-4,11.372575 8.0415161,8.0415161 0 0 0 11.37258,-3.6e-4 8.0415161,8.0415161 0 0 0 0,-11.372215 8.0415161,8.0415161 0 0 0 -11.37222,0 z M 76.007991,144.18645 a 8.0415161,8.0415161 0 0 0 -3.65e-4,11.37258 8.0415161,8.0415161 0 0 0 11.372587,-3.6e-4 8.0415161,8.0415161 0 0 0 -7e-6,-11.37222 8.0415161,8.0415161 0 0 0 -11.372215,0 z m 15.457837,-15.45784 a 8.0415161,8.0415161 0 0 0 0,11.37221 8.0415161,8.0415161 0 0 0 11.372222,1e-5 8.0415161,8.0415161 0 0 0 3.6e-4,-11.37258 8.0415161,8.0415161 0 0 0 -11.372582,3.6e-4 z m 15.458202,-15.4582 a 8.0415161,8.0415161 0 0 0 0,11.37221 8.0415161,8.0415161 0 0 0 11.37222,1e-5 8.0415161,8.0415161 0 0 0 -1e-5,-11.37222 8.0415161,8.0415161 0 0 0 -11.37221,0 z m 15.4582,-15.458203 a 8.0415161,8.0415161 0 0 0 -3.7e-4,11.372583 8.0415161,8.0415161 0 0 0 11.37259,-3.6e-4 8.0415161,8.0415161 0 0 0 0,-11.372223 8.0415161,8.0415161 0 0 0 -11.37222,0 z M 90.960464,159.64464 a 8.0415161,8.0415161 0 0 0 -3.65e-4,11.37258 8.0415161,8.0415161 0 0 0 11.372591,-3.6e-4 8.0415161,8.0415161 0 0 0 -1e-5,-11.37222 8.0415161,8.0415161 0 0 0 -11.372216,0 z M 106.4183,144.18681 a 8.0415161,8.0415161 0 0 0 0,11.37221 8.0415161,8.0415161 0 0 0 11.37222,1e-5 8.0415161,8.0415161 0 0 0 3.6e-4,-11.37259 8.0415161,8.0415161 0 0 0 -11.37258,3.7e-4 z m 15.4582,-15.4582 a 8.0415161,8.0415161 0 0 0 0,11.37221 8.0415161,8.0415161 0 0 0 11.37222,1e-5 8.0415161,8.0415161 0 0 0 0,-11.37222 8.0415161,8.0415161 0 0 0 -11.37222,0 z m 15.4582,-15.45821 a 8.0415161,8.0415161 0 0 0 -3.6e-4,11.37258 8.0415161,8.0415161 0 0 0 11.37259,-3.6e-4 8.0415161,8.0415161 0 0 0 -1e-5,-11.37222 8.0415161,8.0415161 0 0 0 -11.37222,0 z"
       inkscape:export-filename="C:\quartoGUI\board.png"
       inkscape:export-xdpi="105.76015"
       inkscape:export-ydpi="105.76015" />
    <circle
       style="fill:#ffff00;fill-opacity:1;stroke:#ff0000;stroke-width:2;stroke-linejoin:round;stroke-miterlimit:4;stroke-dasharray:none;stroke-opacity:1"
       id="path6161"
       cx="55.084389"
       cy="204.61191"
       r="4.8249097"
       inkscape:export-filename="C:\quartoGUI\piece1.png"
       inkscape:export-xdpi="98.113091"
       inkscape:export-ydpi="98.113091" />
    <circle
       style="fill:#dcb27f;fill-opacity:1;stroke:#e49a3d;stroke-width:2.73629;stroke-linejoin:round;stroke-miterlimit:4;stroke-dasharray:none;stroke-opacity:1"
       id="path6161-6"
       cx="55.084389"
       cy="226.32402"
       r="6.6011701" />
    <rect
       style="fill:#dcb27f;fill-opacity:1;stroke:#e49a3d;stroke-width:2;stroke-linejoin:round;stroke-miterlimit:4;stroke-dasharray:none;stroke-opacity:1"
       id="rect11677"
       width="8.5776176"
       height="8.5776176"
       x="73.937279"
       y="199.78702" />
    <rect
       style="fill:#dcb27f;fill-opacity:1;stroke:#e49a3d;stroke-width:2.94607;stroke-linejoin:round;stroke-miterlimit:4;stroke-dasharray:none;stroke-opacity:1"
       id="rect11677-9"
       width="12.635153"
       height="12.635153"
       x="71.908508"
       y="219.41078" />
    <circle
       style="fill:#e49a3d;fill-opacity:1;stroke:#e49a3d;stroke-width:2;stroke-linejoin:round;stroke-miterlimit:4;stroke-dasharray:none;stroke-opacity:1"
       id="path6161-63"
       cx="55.084389"
       cy="248.03612"
       r="4.8249097" />
    <circle
       style="fill:#e49a3d;fill-opacity:1;stroke:#e49a3d;stroke-width:2.73629;stroke-linejoin:round;stroke-miterlimit:4;stroke-dasharray:none;stroke-opacity:1"
       id="path6161-6-5"
       cx="55.084389"
       cy="269.74823"
       r="6.6011701" />
    <rect
       style="fill:#e49a3d;fill-opacity:1;stroke:#e49a3d;stroke-width:2;stroke-linejoin:round;stroke-miterlimit:4;stroke-dasharray:none;stroke-opacity:1"
       id="rect11677-6"
       width="8.5776176"
       height="8.5776176"
       x="73.937279"
       y="243.09209" />
    <rect
       style="fill:#e49a3d;fill-opacity:1;stroke:#e49a3d;stroke-width:2.94607;stroke-linejoin:round;stroke-miterlimit:4;stroke-dasharray:none;stroke-opacity:1"
       id="rect11677-9-1"
       width="12.635153"
       height="12.635153"
       x="71.908508"
       y="262.71585" />
    <circle
       style="fill:#ffff00;fill-opacity:1;stroke:#00ffff;stroke-width:2;stroke-linejoin:round;stroke-miterlimit:4;stroke-dasharray:none;stroke-opacity:1"
       id="path6161-1"
       cx="103.28881"
       cy="204.74593"
       r="4.8249097" />
    <circle
       style="fill:#9b5900;fill-opacity:1;stroke:#4d2b00;stroke-width:2.73629;stroke-linejoin:round;stroke-miterlimit:4;stroke-dasharray:none;stroke-opacity:1"
       id="path6161-6-7"
       cx="103.28881"
       cy="226.45804"
       r="6.6011701" />
    <rect
       style="fill:#9b5900;fill-opacity:1;stroke:#4d2b00;stroke-width:2;stroke-linejoin:round;stroke-miterlimit:4;stroke-dasharray:none;stroke-opacity:1"
       id="rect11677-2"
       width="8.5776176"
       height="8.5776176"
       x="122.14169"
       y="199.92104" />
    <rect
       style="fill:#9b5900;fill-opacity:1;stroke:#4d2b00;stroke-width:2.94607;stroke-linejoin:round;stroke-miterlimit:4;stroke-dasharray:none;stroke-opacity:1"
       id="rect11677-9-5"
       width="12.635153"
       height="12.635153"
       x="120.11292"
       y="219.5448" />
    <circle
       style="fill:#4d2b00;fill-opacity:1;stroke:#4d2b00;stroke-width:2;stroke-linejoin:round;stroke-miterlimit:4;stroke-dasharray:none;stroke-opacity:1"
       id="path6161-63-2"
       cx="103.28881"
       cy="248.17014"
       r="4.8249097" />
    <circle
       style="fill:#4d2b00;fill-opacity:1;stroke:#4d2b00;stroke-width:2.73629;stroke-linejoin:round;stroke-miterlimit:4;stroke-dasharray:none;stroke-opacity:1"
       id="path6161-6-5-5"
       cx="103.28881"
       cy="269.88223"
       r="6.6011701" />
    <rect
       style="fill:#4d2b00;fill-opacity:1;stroke:#4d2b00;stroke-width:2;stroke-linejoin:round;stroke-miterlimit:4;stroke-dasharray:none;stroke-opacity:1"
       id="rect11677-6-2"
       width="8.5776176"
       height="8.5776176"
       x="122.14169"
       y="243.22609" />
    <rect
       style="fill:#4d2b00;fill-opacity:1;stroke:#4d2b00;stroke-width:2.94607;stroke-linejoin:round;stroke-miterlimit:4;stroke-dasharray:none;stroke-opacity:1"
       id="rect11677-9-1-0"
       width="12.635153"
       height="12.635153"
       x="120.11292"
       y="262.84985" />
  </g>
</svg>
